# xmcd CD database file
#
# Track frame offsets:
#	150
#	16872
#	33755
#	47021
#	61250
#	73963
#	88503
#	100620
#	115952
#	126895
#
# Disc length: 1906 seconds
#
# Revision: 0
# Processed by: cddbd v1.5.2PL0 Copyright (c) Steve Scherf et al.
# Submitted via: CDex 1.51
#
DISCID=7b07700a
DTITLE=Alex Whitmore - The Barfarcist II
DYEAR=2005
DGENRE=Country
TTITLE0=Daddy Let Me Drive 
TTITLE1=I Just Don't Look Good Naked Anymore
TTITLE2=Caffeine
TTITLE3=The Breast Man
TTITLE4=I'm An Idiot
TTITLE5=Four Nights Drunk
TTITLE6=Ode 'D Laundromat
TTITLE7=The Opera Singer
TTITLE8=No Thought Unuttered
TTITLE9=Baby Boomers Lament
EXTD=YEAR: 2005
EXTT0=
EXTT1=
EXTT2=
EXTT3=
EXTT4=
EXTT5=
EXTT6=
EXTT7=
EXTT8=
EXTT9=
PLAYORDER=
